<?xml version="1.0" standalone="no"?>
<!DOCTYPE svg PUBLIC "-//W3C//DTD SVG 20010904//EN"
 "http://www.w3.org/TR/2001/REC-SVG-20010904/DTD/svg10.dtd">
<svg version="1.0" xmlns="http://www.w3.org/2000/svg"
 width="600.000000pt" height="600.000000pt" viewBox="0 0 600.000000 600.000000"
 preserveAspectRatio="xMidYMid meet">
<metadata>
Created by potrace 1.11, written by Peter Selinger 2001-2013
</metadata>
<g transform="translate(0.000000,600.000000) scale(0.100000,-0.100000)"
fill="#000000" stroke="none">
<path d="M1950 5287 c-151 -303 -480 -968 -733 -1477 -514 -1036 -647 -1306
-647 -1312 0 -2 460 -4 1022 -3 998 0 1022 0 1040 -19 10 -11 18 -25 18 -32 0
-7 6 -19 13 -26 7 -7 14 -17 16 -23 2 -10 58 -127 156 -328 26 -53 52 -97 57
-97 5 0 7 -4 4 -9 -9 -14 24 -72 36 -65 6 4 8 2 5 -3 -8 -13 19 -83 32 -83 5
0 8 -6 8 -12 -1 -14 52 -129 63 -138 4 -3 10 -18 14 -33 4 -17 11 -25 18 -21
7 4 8 3 4 -4 -3 -6 11 -44 32 -85 21 -40 42 -82 45 -93 15 -42 54 -104 62 -97
4 5 5 3 2 -3 -7 -13 46 -127 55 -119 3 4 5 0 4 -7 -2 -22 86 -198 97 -191 6 3
7 2 4 -4 -7 -12 14 -73 25 -73 4 0 8 -9 8 -20 0 -11 5 -20 11 -20 5 0 8 -4 4
-9 -3 -6 2 -14 11 -19 9 -5 16 -13 15 -18 -1 -17 23 -74 31 -74 4 0 7 -3 6 -7
-3 -11 44 -107 56 -115 7 -5 7 -8 1 -8 -5 0 -3 -6 6 -13 9 -7 17 -15 17 -19 1
-5 2 -9 3 -10 0 -2 2 -12 4 -23 2 -11 10 -24 17 -30 7 -5 14 -17 16 -25 4 -23
44 -100 52 -100 4 0 7 -6 7 -14 0 -22 25 -76 35 -76 5 0 7 -4 3 -9 -3 -5 1
-15 8 -23 7 -7 14 -17 15 -21 2 -19 28 -67 35 -67 5 0 6 -4 3 -9 -3 -4 1 -16
8 -26 12 -16 20 -5 75 108 33 69 61 130 61 136 0 5 3 11 8 13 15 6 104 197 96
209 -4 7 -3 9 3 6 10 -6 20 6 21 27 0 5 4 12 9 15 11 8 95 184 93 195 -1 5 3
12 8 15 17 11 112 212 106 223 -4 6 -3 8 3 5 9 -6 52 72 45 82 -2 2 1 7 6 10
15 10 53 91 47 100 -2 5 2 12 11 15 8 3 13 10 10 15 -4 5 -2 11 2 13 12 4 97
180 96 195 -1 7 2 13 7 13 9 0 134 247 134 265 0 6 6 15 14 21 8 6 11 18 8 28
-4 9 -3 15 2 12 12 -8 44 61 35 76 -4 6 -3 8 3 5 12 -8 246 461 239 479 -3 8
-2 13 2 11 4 -1 8 2 9 7 1 5 5 12 11 15 12 8 105 200 105 217 0 7 3 11 7 9 10
-6 41 65 34 78 -4 7 -3 9 1 4 7 -6 101 166 108 199 2 7 8 18 14 26 6 7 14 25
18 41 4 15 11 27 15 27 5 0 11 13 15 30 4 17 11 30 17 30 6 0 8 7 4 15 -3 8
-2 15 2 15 13 0 53 90 46 102 -4 6 -3 8 3 5 13 -8 36 41 27 55 -4 6 -2 8 3 5
14 -9 46 59 37 76 -4 6 -4 9 1 5 9 -9 49 51 41 60 -11 10 -276 7 -276 -3 0 -7
-3 -7 -8 0 -4 6 -55 10 -117 10 -62 0 -113 -4 -117 -10 -5 -7 -8 -7 -8 0 0 6
-45 10 -115 10 -70 0 -115 -4 -115 -10 0 -7 -3 -7 -8 0 -4 6 -55 10 -117 10
-62 0 -113 -4 -117 -10 -5 -7 -8 -7 -8 0 0 6 -45 10 -115 10 -70 0 -115 -4
-115 -10 0 -7 -3 -7 -8 0 -4 6 -55 10 -117 10 -62 0 -113 -4 -117 -10 -5 -7
-8 -7 -8 0 0 6 -45 10 -115 10 -70 0 -115 -4 -115 -10 0 -7 -3 -7 -8 0 -4 6
-55 10 -117 10 -62 0 -113 -4 -117 -10 -5 -6 -8 -6 -8 1 0 7 -15 9 -40 7 l-39
-4 -180 363 c-461 935 -979 1979 -985 1985 -1 2 -125 -246 -276 -550z m2455
-1846 c3 -5 2 -12 -3 -15 -5 -3 -9 1 -9 9 0 17 3 19 12 6z m239 1 c3 -5 -1 -9
-9 -9 -8 0 -12 4 -9 9 3 4 7 8 9 8 2 0 6 -4 9 -8z m163 -167 c0 -8 -4 -12 -9
-9 -5 3 -6 10 -3 15 9 13 12 11 12 -6z m-800 -310 c0 -8 -4 -12 -9 -9 -5 3 -6
10 -3 15 9 13 12 11 12 -6z m-82 -253 c-3 -3 -11 0 -18 7 -9 10 -8 11 6 5 10
-3 15 -9 12 -12z m639 2 c3 -8 2 -12 -4 -9 -6 3 -10 10 -10 16 0 14 7 11 14
-7z m166 -148 c0 -2 -7 -7 -16 -10 -8 -3 -12 -2 -9 4 6 10 25 14 25 6z m-1289
-179 c-10 -9 -11 -8 -5 6 3 10 9 15 12 12 3 -3 0 -11 -7 -18z m893 -65 c3 -5
-1 -9 -9 -9 -8 0 -12 4 -9 9 3 4 7 8 9 8 2 0 6 -4 9 -8z m-1039 -82 c3 -6 -1
-7 -9 -4 -18 7 -21 14 -7 14 6 0 13 -4 16 -10z m-251 -238 c3 -5 -1 -9 -9 -9
-8 0 -12 4 -9 9 3 4 7 8 9 8 2 0 6 -4 9 -8z m321 -1 c3 -5 2 -12 -3 -15 -5 -3
-9 1 -9 9 0 17 3 19 12 6z m560 -89 c-3 -3 -11 0 -18 7 -9 10 -8 11 6 5 10 -3
15 -9 12 -12z m316 -5 c-10 -9 -11 -8 -5 6 3 10 9 15 12 12 3 -3 0 -11 -7 -18z
m167 -152 c-3 -3 -9 2 -12 12 -6 14 -5 15 5 6 7 -7 10 -15 7 -18z m-807 -168
c-10 -9 -11 -8 -5 6 3 10 9 15 12 12 3 -3 0 -11 -7 -18z m329 19 c0 -2 -7 -7
-16 -10 -8 -3 -12 -2 -9 4 6 10 25 14 25 6z m-645 -75 c3 -5 2 -12 -3 -15 -5
-3 -9 1 -9 9 0 17 3 19 12 6z m483 -96 c-3 -3 -9 2 -12 12 -6 14 -5 15 5 6 7
-7 10 -15 7 -18z m317 -3 c-3 -3 -11 0 -18 7 -9 10 -8 11 6 5 10 -3 15 -9 12
-12z m170 8 c-3 -5 -12 -10 -18 -10 -7 0 -6 4 3 10 19 12 23 12 15 0z m-332
-155 c-3 -9 -8 -14 -10 -11 -3 3 -2 9 2 15 9 16 15 13 8 -4z m-162 -338 c-10
-9 -11 -8 -5 6 3 10 9 15 12 12 3 -3 0 -11 -7 -18z m170 -304 c13 -16 12 -17
-3 -4 -10 7 -18 15 -18 17 0 8 8 3 21 -13z"/>
</g>
</svg>
